<svg width="153" height="233" viewBox="0 0 153 233" fill="none" xmlns="http://www.w3.org/2000/svg">
<path d="M0 0H153V233H0V0Z" fill="#1A0449"/>
<path d="M0 0H31L0 22V0Z" fill="black"/>
<path d="M153 233H122L153 211V233Z" fill="black"/>
<path d="M30.3891 170.359C66.7773 161.262 98.6171 174.907 121.36 152.165C130.457 143.068 130.457 124.873 121.36 115.776C116.811 111.228 112.263 106.679 103.166 106.679C103.166 106.679 110.807 96.1267 135.005 93.0337L107.714 65.7425C103.166 88.4852 94.0685 97.5822 94.0685 97.5822C94.0685 88.4852 89.52 83.9366 84.9715 79.3881C75.8744 70.291 57.6803 70.291 48.5832 79.3881C25.8405 102.131 39.4861 133.971 30.3891 170.359Z" fill="black"/>
<path d="M27.2808 192.68C21.5208 191 17.5008 189.32 15.2208 187.64C13.0608 185.96 11.9808 183.86 11.9808 181.34C11.9808 179.42 12.5208 176.72 13.6008 173.24C14.6808 169.76 16.2408 165.68 18.2808 161C20.4408 156.2 22.9608 150.92 25.8408 145.16C28.8408 139.4 32.2008 133.22 35.9208 126.62C32.8008 126.5 29.9808 126.44 27.4608 126.44C25.0608 126.32 23.0808 126.26 21.5208 126.26C22.2408 124.46 24.2808 122.9 27.6408 121.58C31.0008 120.26 35.4408 119.12 40.9608 118.16C45.6408 110.36 50.6208 102.92 55.9008 95.84C61.3008 88.76 66.7008 82.28 72.1008 76.4C77.5008 70.4 82.9008 65.18 88.3008 60.74C93.7008 56.18 98.8608 52.58 103.781 49.94C103.901 49.1 103.961 48.38 103.961 47.78C104.081 47.18 104.141 46.76 104.141 46.52C105.821 46.52 108.041 46.94 110.801 47.78C113.681 48.62 116.441 49.64 119.081 50.84C121.841 52.04 124.241 53.3 126.281 54.62C128.441 55.82 129.641 56.84 129.881 57.68C125.921 64.64 122.021 75.08 118.181 89C114.341 102.8 111.161 119.36 108.641 138.68C108.041 143.48 107.501 148.94 107.021 155.06C106.661 161.18 106.481 168.02 106.481 175.58C106.481 178.22 106.481 180.92 106.481 183.68C106.481 186.44 106.601 189.32 106.841 192.32C106.601 192.44 106.361 192.5 106.121 192.5C105.881 192.5 105.401 192.5 104.681 192.5C103.001 192.5 101.021 192.2 98.7408 191.6C96.5808 191.12 94.4208 190.46 92.2608 189.62C90.2208 188.9 88.4208 188.06 86.8608 187.1C85.4208 186.14 84.5208 185.3 84.1608 184.58C84.0408 183.02 83.9808 181.46 83.9808 179.9C83.9808 178.46 83.9808 176.9 83.9808 175.22C83.9808 167.78 84.2208 160.22 84.7008 152.54C85.3008 144.86 86.2608 136.94 87.5808 128.78C85.9008 128.66 83.6808 128.54 80.9208 128.42C78.1608 128.18 75.0408 128 71.5608 127.88C68.2008 127.76 64.5408 127.64 60.5808 127.52C56.7408 127.28 52.9608 127.1 49.2408 126.98C46.3608 132.38 43.6608 137.78 41.1408 143.18C38.6208 148.46 36.4608 153.8 34.6608 159.2C32.6208 164.96 30.9408 170.72 29.6208 176.48C28.4208 182.24 27.6408 187.64 27.2808 192.68ZM96.7608 84.5C97.2408 82.82 97.7808 80.54 98.3808 77.66C99.1008 74.66 99.7608 71.54 100.361 68.3C97.3608 69.38 94.0008 71.36 90.2808 74.24C86.6808 77.12 82.9008 80.72 78.9408 85.04C75.1008 89.24 71.1408 94.04 67.0608 99.44C63.1008 104.72 59.2608 110.36 55.5408 116.36C65.6208 115.52 77.0808 114.98 89.9208 114.74C90.8808 109.7 91.9008 104.72 92.9808 99.8C94.1808 94.76 95.4408 89.66 96.7608 84.5Z" fill="white"/>
<path d="M0 0H31L0 22V0Z" fill="black"/>
<path d="M26.0008 18L23.0008 26L15.0008 29L23.0008 32L26.0008 40L29.0008 32L37.0008 29L29.0008 26L26.0008 18Z" fill="#FFA900"/>
<path d="M135.928 143.725L130.27 150.127L121.726 150.073L128.128 155.731L128.075 164.275L133.733 157.873L142.277 157.927L135.875 152.268L135.928 143.725Z" fill="#FFA900"/>
<path d="M122.896 12.3403L128.067 19.1418L126.342 27.51L133.144 22.339L141.512 24.0634L136.341 17.2619L138.065 8.89368L131.264 14.0646L122.896 12.3403Z" fill="#FFA900"/>
<path d="M11.6407 172.248L17.8895 180.467L15.8057 190.579L24.025 184.331L34.1374 186.414L27.8886 178.195L29.9724 168.083L21.7532 174.332L11.6407 172.248Z" fill="#FFA900"/>
</svg>
