<svg width="153" height="233" viewBox="0 0 153 233" fill="none" xmlns="http://www.w3.org/2000/svg">
<path d="M0 0H153V233H0V0Z" fill="#1A0449"/>
<path d="M0 0H31L0 22V0Z" fill="black"/>
<path d="M153 233H122L153 211V233Z" fill="black"/>
<path d="M30.3891 170.359C66.7773 161.262 98.6171 174.907 121.36 152.165C130.457 143.068 130.457 124.873 121.36 115.776C116.811 111.228 112.263 106.679 103.166 106.679C103.166 106.679 110.807 96.1267 135.005 93.0337L107.714 65.7425C103.166 88.4852 94.0685 97.5822 94.0685 97.5822C94.0685 88.4852 89.52 83.9366 84.9715 79.3881C75.8744 70.291 57.6803 70.291 48.5832 79.3881C25.8405 102.131 39.4861 133.971 30.3891 170.359Z" fill="black"/>
<path d="M44.8808 154.36C47.5208 154.36 49.5608 155.04 51.0008 156.4C52.5208 157.68 53.2808 159.48 53.2808 161.8C53.2808 162.44 53.2008 163.08 53.0408 163.72C52.9608 164.44 52.8408 165.04 52.6808 165.52C51.6408 165.36 50.4808 165.2 49.2008 165.04C47.9208 164.96 46.4008 164.92 44.6408 164.92C42.2408 164.92 39.7608 165.08 37.2008 165.4C34.7208 165.72 32.2808 166.04 29.8808 166.36C27.4808 166.76 25.1608 167.12 22.9208 167.44C20.6808 167.76 18.6008 167.92 16.6808 167.92C13.5608 167.92 10.8808 167.32 8.64077 166.12C6.40077 164.92 4.88077 163.28 4.08077 161.2C4.40077 160.88 5.16077 160.56 6.36077 160.24C7.64078 159.84 9.16078 159.44 10.9208 159.04C12.7608 158.56 14.8008 158.12 17.0408 157.72C19.3608 157.32 21.7208 156.92 24.1208 156.52C25.2408 151.72 26.4808 146.8 27.8408 141.76C29.2808 136.64 30.7208 131.56 32.1608 126.52C33.6808 121.4 35.2408 116.36 36.8408 111.4C38.4408 106.44 40.0408 101.64 41.6408 97C38.9208 98.28 36.0808 100 33.1208 102.16C30.2408 104.24 27.7608 106.2 25.6808 108.04C24.8008 107.56 24.3608 106.48 24.3608 104.8C27.3208 100.8 30.3208 97.24 33.3608 94.12C36.4008 91 39.7608 87.68 43.4408 84.16C44.3208 83.28 45.3608 82.04 46.5608 80.44C47.8408 78.84 48.9208 77.24 49.8008 75.64C50.9208 75.96 52.3208 76.32 54.0008 76.72C55.6808 77.04 57.3208 77.48 58.9208 78.04C60.6008 78.52 62.0808 79.12 63.3608 79.84C64.7208 80.56 65.6408 81.4 66.1208 82.36C65.0808 83.24 64.1208 84.16 63.2408 85.12C62.4408 86.08 61.7208 87.12 61.0808 88.24C59.4808 91.12 57.6008 95.16 55.4408 100.36C53.3608 105.48 51.2008 111.12 48.9608 117.28C46.8008 123.36 44.6008 129.72 42.3608 136.36C40.2008 142.92 38.2408 149.08 36.4808 154.84C38.1608 154.68 39.6808 154.56 41.0408 154.48C42.4808 154.4 43.7608 154.36 44.8808 154.36Z" fill="white"/>
<path d="M88.378 167.32C85.498 166.76 82.818 165.88 80.338 164.68C77.938 163.56 75.858 162 74.098 160C72.418 157.92 71.058 155.4 70.018 152.44C69.058 149.4 68.578 145.72 68.578 141.4C68.578 136.52 69.258 131.48 70.618 126.28C71.978 121.08 73.858 116.04 76.258 111.16C78.738 106.2 81.618 101.52 84.898 97.12C88.258 92.64 91.898 88.76 95.818 85.48C99.738 82.12 103.858 79.48 108.178 77.56C112.578 75.56 117.018 74.56 121.498 74.56C124.858 74.56 127.738 75.2 130.138 76.48C132.618 77.68 134.658 79.4 136.258 81.64C137.938 83.8 139.178 86.44 139.978 89.56C140.778 92.6 141.178 95.92 141.178 99.52C141.178 104.24 140.578 109.2 139.378 114.4C138.258 119.6 136.618 124.68 134.458 129.64C132.298 134.6 129.658 139.36 126.538 143.92C123.498 148.4 120.018 152.36 116.098 155.8C112.178 159.24 107.898 162 103.258 164.08C98.618 166.16 93.658 167.24 88.378 167.32ZM83.578 146.32C83.578 151.76 84.538 155.6 86.458 157.84C88.378 160.08 91.178 161.52 94.858 162.16C98.458 162 101.858 160.64 105.058 158.08C108.338 155.52 111.338 152.28 114.058 148.36C116.778 144.36 119.218 139.96 121.378 135.16C123.618 130.28 125.498 125.44 127.018 120.64C128.538 115.84 129.698 111.32 130.498 107.08C131.298 102.76 131.698 99.2 131.698 96.4C131.698 92 131.178 88.44 130.138 85.72C129.178 82.92 127.538 81.24 125.218 80.68C121.538 81.16 117.938 82.64 114.418 85.12C110.978 87.52 107.698 90.56 104.578 94.24C101.538 97.92 98.738 102.08 96.178 106.72C93.618 111.28 91.378 115.92 89.458 120.64C87.618 125.36 86.178 129.96 85.138 134.44C84.098 138.92 83.578 142.88 83.578 146.32Z" fill="white"/>
<path d="M0 0H31L0 22V0Z" fill="black"/>
<path d="M26.0008 18L23.0008 26L15.0008 29L23.0008 32L26.0008 40L29.0008 32L37.0008 29L29.0008 26L26.0008 18Z" fill="#FFA900"/>
<path d="M135.928 143.725L130.27 150.127L121.726 150.073L128.128 155.731L128.075 164.275L133.733 157.873L142.277 157.927L135.875 152.268L135.928 143.725Z" fill="#FFA900"/>
<path d="M122.896 12.3403L128.067 19.1418L126.342 27.51L133.144 22.339L141.512 24.0634L136.341 17.2619L138.065 8.89368L131.264 14.0646L122.896 12.3403Z" fill="#FFA900"/>
<path d="M11.6407 172.248L17.8895 180.467L15.8057 190.579L24.025 184.331L34.1374 186.414L27.8886 178.195L29.9724 168.083L21.7532 174.332L11.6407 172.248Z" fill="#FFA900"/>
</svg>
