<svg width="153" height="233" viewBox="0 0 153 233" fill="none" xmlns="http://www.w3.org/2000/svg">
<path d="M0 0H153V233H0V0Z" fill="#1A0449"/>
<path d="M0 0H31L0 22V0Z" fill="black"/>
<path d="M153 233H122L153 211L153 233Z" fill="black"/>
<path d="M30.389 170.359C66.7773 161.262 98.6171 174.907 121.36 152.165C130.457 143.068 130.457 124.873 121.36 115.776C116.811 111.228 112.263 106.679 103.166 106.679C103.166 106.679 110.807 96.1267 135.005 93.0337L107.714 65.7425C103.166 88.4852 94.0685 97.5822 94.0685 97.5822C94.0685 88.4852 89.52 83.9366 84.9715 79.3881C75.8744 70.291 57.6802 70.291 48.5832 79.3881C25.8405 102.131 39.4861 133.971 30.389 170.359Z" fill="black"/>
<path d="M68.4408 116.28C75.0541 106.467 81.5608 97.4533 87.9608 89.24C94.4674 80.92 100.654 73.7733 106.521 67.8C112.387 61.8267 117.774 57.1867 122.681 53.88C127.587 50.5733 131.854 48.92 135.481 48.92C136.867 48.92 138.361 49.4533 139.961 50.52C141.667 51.5867 143.214 52.9733 144.601 54.68C146.094 56.3867 147.321 58.2533 148.281 60.28C149.241 62.2 149.721 64.0667 149.721 65.88C143.107 68.0133 136.601 70.84 130.201 74.36C123.907 77.7733 117.827 81.7733 111.961 86.36C106.201 90.84 100.654 95.8533 95.3208 101.4C90.0941 106.947 85.3474 112.867 81.0808 119.16C82.7874 123.533 84.8674 128.227 87.3208 133.24C89.8808 138.147 92.6541 142.947 95.6408 147.64C98.6274 152.227 101.827 156.493 105.241 160.44C108.654 164.387 112.121 167.533 115.641 169.88C115.107 171.053 114.201 172.173 112.921 173.24C111.641 174.307 110.254 175.267 108.761 176.12C107.267 177.08 105.667 177.827 103.961 178.36C102.361 178.893 100.867 179.16 99.4808 179.16C96.7074 179.16 94.1474 177.827 91.8008 175.16C89.4541 172.6 87.0541 168.707 84.6008 163.48C82.2541 158.147 79.7474 151.587 77.0808 143.8C74.5208 135.907 71.6408 126.733 68.4408 116.28ZM44.2808 179.96C40.2274 179 36.8674 177.293 34.2008 174.84C31.5341 172.493 29.0808 169.507 26.8408 165.88C27.8008 163.853 28.9208 161.187 30.2008 157.88C31.5874 154.573 33.2408 150.52 35.1608 145.72C37.0808 140.813 39.3741 135 42.0408 128.28C44.7074 121.453 47.8008 113.507 51.3208 104.44C53.5608 98.68 55.3741 93.8267 56.7608 89.88C58.2541 85.9333 59.4808 82.0933 60.4408 78.36C61.5074 74.52 62.5208 70.3067 63.4808 65.72C64.4408 61.1333 65.5608 55.32 66.8408 48.28C71.3208 49.1333 75.3741 51.1067 79.0008 54.2C82.7341 57.2933 85.9341 61.0267 88.6008 65.4C87.4274 66.8933 86.0408 69.1867 84.4408 72.28C82.9474 75.2667 81.2408 78.8933 79.3208 83.16C77.4008 87.4267 75.2674 92.1733 72.9208 97.4C70.5741 102.627 68.1208 108.173 65.5608 114.04C59.8008 126.84 55.2674 138.573 51.9608 149.24C48.6541 159.8 46.0941 170.04 44.2808 179.96Z" fill="white"/>
<path d="M0 0H31L0 22V0Z" fill="black"/>
<path d="M26.0008 18L23.0008 26L15.0008 29L23.0008 32L26.0008 40L29.0008 32L37.0008 29L29.0008 26L26.0008 18Z" fill="#FFA900"/>
<path d="M135.928 143.725L130.27 150.127L121.726 150.073L128.128 155.731L128.075 164.275L133.733 157.873L142.277 157.927L135.875 152.268L135.928 143.725Z" fill="#FFA900"/>
<path d="M122.896 12.3403L128.066 19.1418L126.342 27.51L133.144 22.339L141.512 24.0634L136.341 17.2619L138.065 8.89368L131.264 14.0646L122.896 12.3403Z" fill="#FFA900"/>
<path d="M11.6407 172.248L17.8895 180.467L15.8057 190.579L24.025 184.331L34.1374 186.414L27.8886 178.195L29.9724 168.083L21.7532 174.332L11.6407 172.248Z" fill="#FFA900"/>
</svg>
