<svg width="153" height="233" viewBox="0 0 153 233" fill="none" xmlns="http://www.w3.org/2000/svg">
<path d="M0 0H153V233H0V0Z" fill="#1A0449"/>
<path d="M0 0H31L0 22V0Z" fill="black"/>
<path d="M153 233H122L153 211L153 233Z" fill="black"/>
<path d="M30.389 170.359C66.7773 161.262 98.6171 174.907 121.36 152.165C130.457 143.068 130.457 124.873 121.36 115.776C116.811 111.228 112.263 106.679 103.166 106.679C103.166 106.679 110.807 96.1267 135.005 93.0337L107.714 65.7425C103.166 88.4852 94.0685 97.5822 94.0685 97.5822C94.0685 88.4852 89.52 83.9366 84.9715 79.3881C75.8744 70.291 57.6802 70.291 48.5832 79.3881C25.8405 102.131 39.4861 133.971 30.389 170.359Z" fill="black"/>
<path d="M102.521 43.52C104.334 44.3733 106.254 45.4933 108.281 46.88C110.307 48.16 112.174 49.5467 113.881 51.04C115.587 52.4267 117.027 53.8133 118.201 55.2C119.374 56.48 119.961 57.4933 119.961 58.24C118.467 57.92 116.814 57.6533 115.001 57.44C113.294 57.2267 111.641 57.12 110.041 57.12C104.281 57.12 98.6808 58.4 93.2408 60.96C87.8008 63.4133 82.6274 66.9867 77.7208 71.68C72.8141 76.3733 68.2808 82.1333 64.1208 88.96C60.0674 95.68 56.5474 103.307 53.5608 111.84C51.1074 118.987 49.1341 126.08 47.6408 133.12C46.1474 140.053 45.4008 145.867 45.4008 150.56C45.4008 156.533 46.6274 159.627 49.0808 159.84C49.7208 159.84 50.7874 159.947 52.2808 160.16C53.8808 160.48 55.5341 160.853 57.2408 161.28C59.0541 161.707 60.8141 162.133 62.5208 162.56C64.3341 163.093 65.8274 163.573 67.0008 164C71.0541 163.787 75.8008 161.92 81.2408 158.4C86.6808 154.88 92.0141 150.187 97.2408 144.32C101.827 139.2 105.934 133.6 109.561 127.52C113.294 121.333 116.441 114.88 119.001 108.16C121.561 101.333 123.481 94.3467 124.761 87.2C126.147 80.0533 126.841 72.96 126.841 65.92C126.841 63.7867 126.787 61.7067 126.681 59.68C126.574 57.6533 126.414 56.2667 126.201 55.52C130.574 57.6533 133.667 60.16 135.481 63.04C137.294 65.92 138.201 69.6 138.201 74.08C138.201 80.48 137.187 87.36 135.161 94.72C133.134 102.08 130.307 109.44 126.681 116.8C123.161 124.16 118.947 131.253 114.041 138.08C109.134 144.8 103.801 150.827 98.0408 156.16C90.4674 163.2 84.2808 167.147 79.4808 168C82.3608 169.493 85.6674 171.093 89.4008 172.8C93.1341 174.613 96.7608 176.267 100.281 177.76C103.801 179.36 106.947 180.693 109.721 181.76C112.494 182.827 114.361 183.413 115.321 183.52C116.387 183.413 117.774 182.72 119.481 181.44C121.187 180.267 122.627 178.827 123.801 177.12C124.334 177.76 124.814 178.613 125.241 179.68C125.774 180.747 126.094 181.547 126.201 182.08C125.774 183.573 124.867 185.28 123.481 187.2C122.201 189.227 120.707 191.147 119.001 192.96C117.294 194.88 115.534 196.533 113.721 197.92C112.014 199.307 110.521 200.16 109.241 200.48C107.427 200.373 105.721 200.107 104.121 199.68C102.627 199.36 100.974 198.773 99.1608 197.92C97.3474 197.173 95.3208 196.053 93.0808 194.56C90.8408 193.173 88.0674 191.36 84.7608 189.12C78.8941 185.067 73.7741 181.707 69.4008 179.04C65.0274 176.373 61.0274 174.24 57.4008 172.64C53.7741 171.04 50.3608 169.92 47.1608 169.28C43.9608 168.64 40.6541 168.32 37.2408 168.32C25.2941 168.32 18.6808 172.32 17.4008 180.32C15.8008 179.573 14.8941 178.56 14.6808 177.28C15.3208 171.84 17.2941 167.68 20.6008 164.8C24.0141 161.92 29.2408 160.053 36.2808 159.2C31.3741 154.933 28.9208 147.467 28.9208 136.8C28.9208 129.333 29.7741 121.813 31.4808 114.24C33.2941 106.56 35.6941 99.2 38.6808 92.16C41.7741 85.12 45.3474 78.56 49.4008 72.48C53.5608 66.2933 57.9874 60.9067 62.6808 56.32C67.4808 51.7333 72.4408 48.16 77.5608 45.6C82.6808 42.9333 87.7474 41.6 92.7608 41.6C94.5741 41.6 96.2274 41.76 97.7208 42.08C99.3208 42.4 100.921 42.88 102.521 43.52Z" fill="white"/>
<path d="M0 0H31L0 22V0Z" fill="black"/>
<path d="M26.0008 18L23.0008 26L15.0008 29L23.0008 32L26.0008 40L29.0008 32L37.0008 29L29.0008 26L26.0008 18Z" fill="#FFA900"/>
<path d="M135.928 143.725L130.27 150.127L121.726 150.073L128.128 155.731L128.075 164.275L133.733 157.873L142.277 157.927L135.875 152.268L135.928 143.725Z" fill="#FFA900"/>
<path d="M122.896 12.3403L128.066 19.1418L126.342 27.51L133.144 22.339L141.512 24.0634L136.341 17.2619L138.065 8.89368L131.264 14.0646L122.896 12.3403Z" fill="#FFA900"/>
<path d="M11.6407 172.248L17.8895 180.467L15.8057 190.579L24.025 184.331L34.1374 186.414L27.8886 178.195L29.9724 168.083L21.7532 174.332L11.6407 172.248Z" fill="#FFA900"/>
</svg>
