<svg width="153" height="233" viewBox="0 0 153 233" fill="none" xmlns="http://www.w3.org/2000/svg">
<path d="M0 0H153V233H0V0Z" fill="#1A0449"/>
<path d="M0 0H31L0 22V0Z" fill="black"/>
<path d="M153 233H122L153 211L153 233Z" fill="black"/>
<path d="M30.389 170.359C66.7773 161.262 98.6171 174.907 121.36 152.165C130.457 143.068 130.457 124.873 121.36 115.776C116.811 111.228 112.263 106.679 103.166 106.679C103.166 106.679 110.807 96.1267 135.005 93.0337L107.714 65.7425C103.166 88.4852 94.0685 97.5822 94.0685 97.5822C94.0685 88.4852 89.52 83.9366 84.9715 79.3881C75.8744 70.291 57.6802 70.291 48.5832 79.3881C25.8405 102.131 39.4861 133.971 30.389 170.359Z" fill="black"/>
<path d="M99.1608 42.76C103.214 42.76 107.427 43.5067 111.801 45C116.174 46.4933 120.014 48.4133 123.321 50.76C122.254 56.2 121.241 61.1067 120.281 65.48C119.427 69.8533 118.627 73.8533 117.881 77.48C117.134 81 116.387 84.2533 115.641 87.24C115.001 90.12 114.361 92.84 113.721 95.4C111.161 105 108.494 113.693 105.721 121.48C103.054 129.16 100.174 136.093 97.0808 142.28C94.0941 148.467 90.8941 153.96 87.4808 158.76C84.1741 163.56 80.6008 167.773 76.7608 171.4C73.0274 174.92 69.2941 177.8 65.5608 180.04C61.8274 182.28 58.3608 183.72 55.1608 184.36C50.8941 184.36 46.9474 183.88 43.3208 182.92C39.6941 181.96 36.5474 180.627 33.8808 178.92C31.3208 177.32 29.2941 175.347 27.8008 173C26.4141 170.76 25.7208 168.253 25.7208 165.48C25.7208 162.493 26.4674 158.76 27.9608 154.28C29.4541 149.693 31.7474 144.307 34.8408 138.12C36.1208 138.227 37.6141 138.547 39.3208 139.08C41.0274 139.613 42.7341 140.253 44.4408 141C46.1474 141.747 47.6941 142.6 49.0808 143.56C50.4674 144.413 51.4808 145.267 52.1208 146.12C48.7074 149.64 45.9341 153.533 43.8008 157.8C41.6674 161.96 40.6008 165.587 40.6008 168.68C40.6008 170.493 40.9208 172.093 41.5608 173.48C42.3074 174.973 43.5341 176.307 45.2408 177.48C51.7474 175.027 58.0941 170.44 64.2808 163.72C70.4674 157.107 75.9608 148.84 80.7608 138.92C83.6408 133.053 86.2541 126.333 88.6008 118.76C90.9474 111.187 92.9208 103.613 94.5208 96.04C96.2274 88.36 97.5074 81.0533 98.3608 74.12C99.3208 67.08 99.8008 61.16 99.8008 56.36C99.8008 55.6133 99.7474 54.6 99.6408 53.32C99.6408 51.9333 99.5874 50.5467 99.4808 49.16C99.4808 47.6667 99.4274 46.3333 99.3208 45.16C99.2141 43.9867 99.1608 43.1867 99.1608 42.76Z" fill="white"/>
<path d="M0 0H31L0 22V0Z" fill="black"/>
<path d="M26.0008 18L23.0008 26L15.0008 29L23.0008 32L26.0008 40L29.0008 32L37.0008 29L29.0008 26L26.0008 18Z" fill="#FFA900"/>
<path d="M135.928 143.725L130.27 150.127L121.726 150.073L128.128 155.731L128.075 164.275L133.733 157.873L142.277 157.927L135.875 152.268L135.928 143.725Z" fill="#FFA900"/>
<path d="M122.896 12.3403L128.066 19.1418L126.342 27.51L133.144 22.339L141.512 24.0634L136.341 17.2619L138.065 8.89368L131.264 14.0646L122.896 12.3403Z" fill="#FFA900"/>
<path d="M11.6407 172.248L17.8895 180.467L15.8057 190.579L24.025 184.331L34.1374 186.414L27.8886 178.195L29.9724 168.083L21.7532 174.332L11.6407 172.248Z" fill="#FFA900"/>
</svg>
