<svg width="153" height="233" viewBox="0 0 153 233" fill="none" xmlns="http://www.w3.org/2000/svg">
<path d="M0 0H153V233H0V0Z" fill="#1A0449"/>
<path d="M0 0H31L0 22V0Z" fill="black"/>
<path d="M153 233H122L153 211V233Z" fill="black"/>
<path d="M30.3891 170.359C66.7773 161.262 98.6171 174.907 121.36 152.165C130.457 143.068 130.457 124.873 121.36 115.776C116.811 111.228 112.263 106.679 103.166 106.679C103.166 106.679 110.807 96.1267 135.005 93.0337L107.714 65.7425C103.166 88.4852 94.0685 97.5822 94.0685 97.5822C94.0685 88.4852 89.52 83.9366 84.9715 79.3881C75.8744 70.291 57.6803 70.291 48.5832 79.3881C25.8405 102.131 39.4861 133.971 30.3891 170.359Z" fill="black"/>
<path d="M138.901 72.24C138.901 79.28 137.287 86.1 134.061 92.7C130.981 99.3 126.654 105.9 121.081 112.5C115.507 119.1 108.834 125.92 101.061 132.96C93.4341 139.853 85.1475 147.187 76.2008 154.96C72.0941 158.48 68.5741 161.633 65.6408 164.42C62.8541 167.207 60.4341 169.92 58.3808 172.56C56.3274 175.053 54.4941 177.547 52.8808 180.04C51.4141 182.387 50.0208 184.953 48.7008 187.74C60.4341 187.007 72.0941 184.367 83.6808 179.82C95.4141 175.273 105.461 169.333 113.821 162C114.407 162.733 115.141 163.907 116.021 165.52C116.901 166.987 117.634 168.747 118.221 170.8C118.954 172.707 119.541 174.833 119.981 177.18C120.567 179.38 120.861 181.58 120.861 183.78C120.861 187.447 120.054 190.6 118.441 193.24C116.974 194.853 114.847 196.1 112.061 196.98C109.421 197.86 106.267 198.52 102.601 198.96C98.9341 199.4 94.9741 199.693 90.7208 199.84C86.4674 199.987 82.0674 200.06 77.5208 200.06C73.1208 200.06 68.7208 200.133 64.3208 200.28C59.9208 200.573 55.6674 200.94 51.5608 201.38C47.6008 201.967 43.8608 202.773 40.3408 203.8C36.9674 204.827 34.1074 206.22 31.7608 207.98C28.2408 206.367 25.0141 203.947 22.0808 200.72C19.2941 197.64 17.3141 194.267 16.1408 190.6C17.0208 186.347 18.5608 182.387 20.7608 178.72C22.9608 175.053 25.8941 171.24 29.5608 167.28C33.3741 163.32 38.0674 159.067 43.6408 154.52C49.2141 149.827 55.8141 144.327 63.4408 138.02C71.9474 130.98 79.6474 124.38 86.5408 118.22C93.4341 112.06 99.2274 106.193 103.921 100.62C108.761 94.9 112.427 89.3267 114.921 83.9C117.561 78.3267 118.881 72.68 118.881 66.96C118.881 59.7733 117.047 54.1267 113.381 50.02C109.714 45.9133 104.874 43.86 98.8608 43.86C94.6075 43.86 90.5008 44.8867 86.5408 46.94C82.5808 48.8467 79.0608 51.56 75.9808 55.08C72.9008 58.4533 70.4074 62.4133 68.5008 66.96C66.5941 71.36 65.6408 76.0533 65.6408 81.04C65.6408 84.7067 66.1541 88.0067 67.1808 90.94C68.3541 93.7267 70.1141 96.5867 72.4608 99.52C70.4075 99.96 68.5008 100.18 66.7408 100.18C63.2208 100.18 59.9941 99.5933 57.0608 98.42C54.1274 97.2467 51.5608 95.6333 49.3608 93.58C47.3074 91.5267 45.6941 89.1067 44.5208 86.32C43.3474 83.5333 42.7608 80.4533 42.7608 77.08C42.7608 71.5067 44.3741 66.2267 47.6008 61.24C50.8274 56.1067 55.0808 51.6333 60.3608 47.82C65.6408 44.0067 71.5808 41 78.1808 38.8C84.9274 36.4533 91.7474 35.28 98.6408 35.28C104.654 35.28 110.154 36.16 115.141 37.92C120.127 39.68 124.381 42.2467 127.901 45.62C131.421 48.8467 134.134 52.7333 136.041 57.28C137.947 61.8267 138.901 66.8133 138.901 72.24Z" fill="white"/>
<path d="M0 0H31L0 22V0Z" fill="black"/>
<path d="M26.0008 18L23.0008 26L15.0008 29L23.0008 32L26.0008 40L29.0008 32L37.0008 29L29.0008 26L26.0008 18Z" fill="#FFA900"/>
<path d="M135.928 143.725L130.27 150.127L121.726 150.073L128.128 155.731L128.075 164.275L133.733 157.873L142.277 157.927L135.875 152.268L135.928 143.725Z" fill="#FFA900"/>
<path d="M122.896 12.3403L128.067 19.1418L126.342 27.51L133.144 22.339L141.512 24.0634L136.341 17.2619L138.065 8.89368L131.264 14.0646L122.896 12.3403Z" fill="#FFA900"/>
<path d="M11.6407 172.248L17.8895 180.467L15.8057 190.579L24.025 184.331L34.1374 186.414L27.8886 178.195L29.9724 168.083L21.7532 174.332L11.6407 172.248Z" fill="#FFA900"/>
</svg>
