<svg width="153" height="233" viewBox="0 0 153 233" fill="none" xmlns="http://www.w3.org/2000/svg">
<path d="M0 0H153V233H0V0Z" fill="#1A0449"/>
<path d="M0 0H31L0 22V0Z" fill="black"/>
<path d="M153 233H122L153 211V233Z" fill="black"/>
<path d="M30.3891 170.359C66.7773 161.262 98.6171 174.907 121.36 152.165C130.457 143.068 130.457 124.873 121.36 115.776C116.811 111.228 112.263 106.679 103.166 106.679C103.166 106.679 110.807 96.1267 135.005 93.0337L107.714 65.7425C103.166 88.4852 94.0685 97.5822 94.0685 97.5822C94.0685 88.4852 89.52 83.9366 84.9715 79.3881C75.8744 70.291 57.6803 70.291 48.5832 79.3881C25.8405 102.131 39.4861 133.971 30.3891 170.359Z" fill="black"/>
<path d="M51.0408 49.36C53.2408 47.8933 56.2474 46.5 60.0608 45.18C63.8741 43.7133 67.9808 42.4667 72.3808 41.44C76.7808 40.4133 81.1808 39.6067 85.5808 39.02C90.1274 38.4333 94.1608 38.14 97.6808 38.14C103.694 38.14 108.827 39.02 113.081 40.78C117.334 42.3933 120.781 44.5933 123.421 47.38C126.061 50.02 127.967 53.0267 129.141 56.4C130.314 59.7733 130.901 63.22 130.901 66.74C130.901 70.4067 130.167 74.2933 128.701 78.4C127.381 82.5067 125.401 86.6133 122.761 90.72C120.121 94.8267 116.894 98.86 113.081 102.82C109.414 106.633 105.307 110.08 100.761 113.16C110.441 114.333 117.481 117.267 121.881 121.96C126.281 126.653 128.481 132.96 128.481 140.88C128.481 148.36 127.087 155.107 124.301 161.12C121.514 166.987 117.701 172.267 112.861 176.96C108.167 181.507 102.741 185.467 96.5808 188.84C90.4208 192.067 83.8941 194.707 77.0008 196.76C70.2541 198.96 63.3608 200.5 56.3208 201.38C49.2808 202.407 42.6074 202.92 36.3008 202.92C30.8741 201.747 26.7674 198.887 23.9808 194.34C21.1941 189.793 19.8008 184.22 19.8008 177.62C19.8008 177.18 19.8008 176.74 19.8008 176.3C19.9474 175.86 20.0208 175.347 20.0208 174.76C24.5674 176.227 30.4341 176.96 37.6208 176.96C45.1008 176.96 53.1674 176.08 61.8208 174.32C70.4741 172.56 78.4674 169.993 85.8008 166.62C93.1341 163.247 99.2208 159.067 104.061 154.08C108.901 149.093 111.321 143.3 111.321 136.7C111.321 131.86 109.707 127.9 106.481 124.82C103.401 121.593 98.4875 119.54 91.7408 118.66C87.3408 121.3 83.0874 123.207 78.9808 124.38C75.0208 125.407 72.0141 125.92 69.9608 125.92C66.5874 125.92 63.7274 124.453 61.3808 121.52C59.0341 118.587 57.8608 114.113 57.8608 108.1C64.4608 108.1 71.4274 107.367 78.7608 105.9C86.2408 104.433 93.0608 101.94 99.2208 98.42C105.381 94.7533 110.514 89.9867 114.621 84.12C118.874 78.1067 121.147 70.5533 121.441 61.46C120.707 58.5267 118.947 56.4 116.161 55.08C113.521 53.76 110.294 53.1 106.481 53.1C102.961 53.1 99.0741 53.6133 94.8208 54.64C90.7141 55.6667 86.5341 57.1333 82.2808 59.04C78.1741 60.8 74.1408 63 70.1808 65.64C66.3674 68.1333 63.0674 70.8467 60.2808 73.78C57.3474 72.02 55.0008 69.38 53.2408 65.86C51.6274 62.1933 50.8208 58.0133 50.8208 53.32C50.8208 52.5867 50.8208 51.9267 50.8208 51.34C50.8208 50.7533 50.8941 50.0933 51.0408 49.36Z" fill="white"/>
<path d="M0 0H31L0 22V0Z" fill="black"/>
<path d="M26.0008 18L23.0008 26L15.0008 29L23.0008 32L26.0008 40L29.0008 32L37.0008 29L29.0008 26L26.0008 18Z" fill="#FFA900"/>
<path d="M135.928 143.725L130.27 150.127L121.726 150.073L128.128 155.731L128.075 164.275L133.733 157.873L142.277 157.927L135.875 152.268L135.928 143.725Z" fill="#FFA900"/>
<path d="M122.896 12.3403L128.067 19.1418L126.342 27.51L133.144 22.339L141.512 24.0634L136.341 17.2619L138.065 8.89368L131.264 14.0646L122.896 12.3403Z" fill="#FFA900"/>
<path d="M11.6407 172.248L17.8895 180.467L15.8057 190.579L24.025 184.331L34.1374 186.414L27.8886 178.195L29.9724 168.083L21.7532 174.332L11.6407 172.248Z" fill="#FFA900"/>
</svg>
