<svg width="153" height="233" viewBox="0 0 153 233" fill="none" xmlns="http://www.w3.org/2000/svg">
<path d="M0 0H153V233H0V0Z" fill="#1A0449"/>
<path d="M0 0H31L0 22V0Z" fill="black"/>
<path d="M153 233H122L153 211V233Z" fill="black"/>
<path d="M30.3891 170.359C66.7773 161.262 98.6171 174.907 121.36 152.165C130.457 143.068 130.457 124.873 121.36 115.776C116.811 111.228 112.263 106.679 103.166 106.679C103.166 106.679 110.807 96.1267 135.005 93.0337L107.714 65.7425C103.166 88.4852 94.0685 97.5822 94.0685 97.5822C94.0685 88.4852 89.52 83.9366 84.9715 79.3881C75.8744 70.291 57.6803 70.291 48.5832 79.3881C25.8405 102.131 39.4861 133.971 30.3891 170.359Z" fill="black"/>
<path d="M121.401 46.64C125.801 47.6667 130.274 49.3533 134.821 51.7C139.514 53.9 143.107 56.9067 145.601 60.72C137.827 71.4267 130.567 82.5 123.821 93.94C117.074 105.38 110.621 117.187 104.461 129.36L115.241 127.16C116.561 128.627 117.294 130.24 117.441 132L100.061 138.38C94.7808 149.233 90.1608 160.16 86.2008 171.16C82.2408 182.013 79.0141 193.233 76.5208 204.82C72.1208 204.673 67.8674 204.087 63.7608 203.06C59.6541 202.18 56.0608 200.053 52.9808 196.68C55.6208 187.88 58.5541 179.3 61.7808 170.94C65.0074 162.433 68.5274 153.927 72.3408 145.42C69.5541 145.713 66.3274 146.08 62.6608 146.52C59.1408 146.813 55.9141 146.96 52.9808 146.96C49.0208 146.96 44.9141 146.813 40.6608 146.52C36.4074 146.08 32.3008 145.347 28.3408 144.32C24.3808 143.147 20.6408 141.607 17.1208 139.7C13.6008 137.793 10.5208 135.227 7.88078 132C19.4674 118.8 30.1741 104.5 40.0008 89.1C49.8274 73.7 58.4808 57.9333 65.9608 41.8C71.0941 43.4133 76.1541 45.3933 81.1408 47.74C86.2741 50.0867 90.9675 53.02 95.2208 56.54C90.2341 62.26 84.8808 68.4933 79.1608 75.24C73.5874 81.84 68.0141 88.44 62.4408 95.04C57.0141 101.64 51.8808 107.947 47.0408 113.96C42.3474 119.973 38.3874 125.253 35.1608 129.8C38.9741 131.413 42.8608 132.587 46.8208 133.32C50.9274 133.907 55.0341 134.2 59.1408 134.2C61.9274 134.2 65.0074 134.127 68.3808 133.98C71.9008 133.833 75.0541 133.613 77.8408 133.32C85.0274 118.36 92.2141 103.767 99.4008 89.54C106.587 75.1667 113.921 60.8667 121.401 46.64Z" fill="white"/>
<path d="M0 0H31L0 22V0Z" fill="black"/>
<path d="M26.0008 18L23.0008 26L15.0008 29L23.0008 32L26.0008 40L29.0008 32L37.0008 29L29.0008 26L26.0008 18Z" fill="#FFA900"/>
<path d="M135.928 143.725L130.27 150.127L121.726 150.073L128.128 155.731L128.075 164.275L133.733 157.873L142.277 157.927L135.875 152.268L135.928 143.725Z" fill="#FFA900"/>
<path d="M122.896 12.3403L128.067 19.1418L126.342 27.51L133.144 22.339L141.512 24.0634L136.341 17.2619L138.065 8.89368L131.264 14.0646L122.896 12.3403Z" fill="#FFA900"/>
<path d="M11.6407 172.248L17.8895 180.467L15.8057 190.579L24.025 184.331L34.1374 186.414L27.8886 178.195L29.9724 168.083L21.7532 174.332L11.6407 172.248Z" fill="#FFA900"/>
</svg>
