<svg width="153" height="233" viewBox="0 0 153 233" fill="none" xmlns="http://www.w3.org/2000/svg">
<path d="M0 0H153V233H0V0Z" fill="#1A0449"/>
<path d="M0 0H31L0 22V0Z" fill="black"/>
<path d="M153 233H122L153 211V233Z" fill="black"/>
<path d="M30.3891 170.359C66.7773 161.262 98.6171 174.907 121.36 152.165C130.457 143.068 130.457 124.873 121.36 115.776C116.811 111.228 112.263 106.679 103.166 106.679C103.166 106.679 110.807 96.1267 135.005 93.0337L107.714 65.7425C103.166 88.4852 94.0685 97.5822 94.0685 97.5822C94.0685 88.4852 89.52 83.9366 84.9715 79.3881C75.8744 70.291 57.6803 70.291 48.5832 79.3881C25.8405 102.131 39.4861 133.971 30.3891 170.359Z" fill="black"/>
<path d="M32.5008 111.18C34.4074 105.9 36.9741 99.8133 40.2008 92.92C43.5741 86.0267 47.0208 79.2067 50.5408 72.46C54.2074 65.5667 57.8008 59.1133 61.3208 53.1C64.8408 47.0867 67.8474 42.3933 70.3408 39.02C73.2741 40.1933 76.5008 41.8067 80.0208 43.86C83.5408 45.7667 86.7674 48.1133 89.7008 50.9C91.7541 50.7533 94.6141 50.3867 98.2808 49.8C102.094 49.0667 105.981 48.3333 109.941 47.6C113.901 46.72 117.641 45.9133 121.161 45.18C124.827 44.3 127.541 43.5667 129.301 42.98C134.287 45.3267 138.174 48.8467 140.961 53.54C143.747 58.2333 146.314 63.9533 148.661 70.7C139.714 68.3533 130.181 66.52 120.061 65.2C110.087 63.88 100.334 63.22 90.8008 63.22C87.7208 65.86 84.7141 69.0133 81.7808 72.68C78.9941 76.3467 76.3541 80.16 73.8608 84.12C71.3674 87.9333 69.0941 91.6 67.0408 95.12C65.1341 98.64 63.5208 101.647 62.2008 104.14C67.3341 102.087 72.6141 101.06 78.0408 101.06C83.0274 101.06 87.5741 102.013 91.6808 103.92C95.7875 105.827 99.3074 108.467 102.241 111.84C105.174 115.213 107.447 119.173 109.061 123.72C110.674 128.12 111.481 132.96 111.481 138.24C111.481 146.307 108.987 154.227 104.001 162C99.0141 169.627 92.5608 176.447 84.6408 182.46C76.7208 188.473 67.8474 193.313 58.0208 196.98C48.3408 200.793 38.6608 202.773 28.9808 202.92C25.4608 202.187 21.8674 200.133 18.2008 196.76C14.5341 193.387 11.8941 188.767 10.2808 182.9C15.7074 182.753 21.5741 182.093 27.8808 180.92C34.1874 179.6 40.4941 177.767 46.8008 175.42C53.2541 173.073 59.4141 170.287 65.2808 167.06C71.1474 163.687 76.3541 160.02 80.9008 156.06C85.4474 152.1 89.0408 147.847 91.6808 143.3C94.4675 138.607 95.8608 133.693 95.8608 128.56C95.8608 119.613 90.8008 115.14 80.6808 115.14C75.9874 115.14 71.1474 115.873 66.1608 117.34C61.1741 118.807 56.4808 121.007 52.0808 123.94C48.8541 122.767 45.2608 121.08 41.3008 118.88C37.4874 116.68 34.5541 114.113 32.5008 111.18Z" fill="white"/>
<path d="M0 0H31L0 22V0Z" fill="black"/>
<path d="M26.0008 18L23.0008 26L15.0008 29L23.0008 32L26.0008 40L29.0008 32L37.0008 29L29.0008 26L26.0008 18Z" fill="#FFA900"/>
<path d="M135.928 143.725L130.27 150.127L121.726 150.073L128.128 155.731L128.075 164.275L133.733 157.873L142.277 157.927L135.875 152.268L135.928 143.725Z" fill="#FFA900"/>
<path d="M122.896 12.3403L128.067 19.1418L126.342 27.51L133.144 22.339L141.512 24.0634L136.341 17.2619L138.065 8.89368L131.264 14.0646L122.896 12.3403Z" fill="#FFA900"/>
<path d="M11.6407 172.248L17.8895 180.467L15.8057 190.579L24.025 184.331L34.1374 186.414L27.8886 178.195L29.9724 168.083L21.7532 174.332L11.6407 172.248Z" fill="#FFA900"/>
</svg>
