<svg width="153" height="233" viewBox="0 0 153 233" fill="none" xmlns="http://www.w3.org/2000/svg">
<path d="M0 0H153V233H0V0Z" fill="#1A0449"/>
<path d="M0 0H31L0 22V0Z" fill="black"/>
<path d="M153 233H122L153 211V233Z" fill="black"/>
<path d="M30.3891 170.359C66.7773 161.262 98.6171 174.907 121.36 152.165C130.457 143.068 130.457 124.873 121.36 115.776C116.811 111.228 112.263 106.679 103.166 106.679C103.166 106.679 110.807 96.1267 135.005 93.0337L107.714 65.7425C103.166 88.4852 94.0685 97.5822 94.0685 97.5822C94.0685 88.4852 89.52 83.9366 84.9715 79.3881C75.8744 70.291 57.6803 70.291 48.5832 79.3881C25.8405 102.131 39.4861 133.971 30.3891 170.359Z" fill="black"/>
<path d="M113.001 33.96C114.614 33.96 116.741 34.4733 119.381 35.5C122.021 36.5267 124.734 37.92 127.521 39.68C130.454 41.2933 133.167 43.2 135.661 45.4C138.301 47.4533 140.427 49.58 142.041 51.78C136.907 52.5133 130.381 54.9333 122.461 59.04C114.687 63 106.621 68.28 98.2608 74.88C89.9008 81.3333 81.7608 88.8867 73.8408 97.54C66.0674 106.047 59.5408 115.14 54.2608 124.82C57.7808 121.153 61.5208 117.707 65.4808 114.48C69.4408 111.107 73.4008 108.173 77.3608 105.68C81.4674 103.04 85.5008 100.913 89.4608 99.3C93.5674 97.6867 97.4541 96.8067 101.121 96.66C104.201 98.2733 107.281 100.4 110.361 103.04C113.441 105.533 116.227 108.32 118.721 111.4C121.214 114.333 123.267 117.487 124.881 120.86C126.494 124.233 127.301 127.607 127.301 130.98C127.301 135.38 126.054 140.293 123.561 145.72C121.214 151.147 118.061 156.647 114.101 162.22C110.141 167.647 105.594 172.927 100.461 178.06C95.3275 183.193 90.0474 187.813 84.6208 191.92C79.3408 195.88 74.0608 199.033 68.7808 201.38C63.5008 203.873 58.8074 205.12 54.7008 205.12C43.2608 202.773 33.8741 198.52 26.5408 192.36C19.3541 186.2 15.7608 177.987 15.7608 167.72C15.7608 159.213 17.1541 150.34 19.9408 141.1C22.8741 131.86 26.7608 122.693 31.6008 113.6C36.4408 104.507 42.0874 95.7067 48.5408 87.2C54.9941 78.5467 61.8141 70.7 69.0008 63.66C76.3341 56.62 83.7408 50.5333 91.2208 45.4C98.7008 40.12 105.961 36.3067 113.001 33.96ZM100.681 107C91.5874 109.933 83.3008 113.893 75.8208 118.88C68.3408 123.72 61.8874 129.147 56.4608 135.16C51.1808 141.027 47.0008 147.187 43.9208 153.64C40.9874 160.093 39.5208 166.327 39.5208 172.34C39.5208 174.54 39.8874 176.813 40.6208 179.16C41.3541 181.507 42.3808 183.707 43.7008 185.76C45.0208 187.813 46.5608 189.72 48.3208 191.48C50.0808 193.093 51.9141 194.193 53.8208 194.78C59.6874 191.993 65.7741 187.74 72.0808 182.02C78.5341 176.3 84.4008 170.067 89.6808 163.32C95.1075 156.427 99.5808 149.46 103.101 142.42C106.621 135.233 108.381 128.78 108.381 123.06C108.381 120.127 107.794 117.193 106.621 114.26C105.447 111.327 103.467 108.907 100.681 107Z" fill="white"/>
<path d="M0 0H31L0 22V0Z" fill="black"/>
<path d="M26.0008 18L23.0008 26L15.0008 29L23.0008 32L26.0008 40L29.0008 32L37.0008 29L29.0008 26L26.0008 18Z" fill="#FFA900"/>
<path d="M135.928 143.725L130.27 150.127L121.726 150.073L128.128 155.731L128.075 164.275L133.733 157.873L142.277 157.927L135.875 152.268L135.928 143.725Z" fill="#FFA900"/>
<path d="M122.896 12.3403L128.067 19.1418L126.342 27.51L133.144 22.339L141.512 24.0634L136.341 17.2619L138.065 8.89368L131.264 14.0646L122.896 12.3403Z" fill="#FFA900"/>
<path d="M11.6407 172.248L17.8895 180.467L15.8057 190.579L24.025 184.331L34.1374 186.414L27.8886 178.195L29.9724 168.083L21.7532 174.332L11.6407 172.248Z" fill="#FFA900"/>
</svg>
