<svg width="153" height="233" viewBox="0 0 153 233" fill="none" xmlns="http://www.w3.org/2000/svg">
<path d="M0 0H153V233H0V0Z" fill="#1A0449"/>
<path d="M0 0H31L0 22V0Z" fill="black"/>
<path d="M153 233H122L153 211V233Z" fill="black"/>
<path d="M30.3891 170.359C66.7773 161.262 98.6171 174.907 121.36 152.165C130.457 143.068 130.457 124.873 121.36 115.776C116.811 111.228 112.263 106.679 103.166 106.679C103.166 106.679 110.807 96.1267 135.005 93.0337L107.714 65.7425C103.166 88.4852 94.0685 97.5822 94.0685 97.5822C94.0685 88.4852 89.52 83.9366 84.9715 79.3881C75.8744 70.291 57.6803 70.291 48.5832 79.3881C25.8405 102.131 39.4861 133.971 30.3891 170.359Z" fill="black"/>
<path d="M40.0208 114.92C43.3941 114.333 46.7674 113.893 50.1408 113.6C53.5141 113.307 56.8874 113.16 60.2608 113.16C61.8741 113.16 63.4141 113.233 64.8808 113.38C66.4941 113.38 68.1074 113.453 69.7208 113.6C75.1474 104.36 81.0874 95.12 87.5408 85.88C93.9941 76.64 100.961 67.6933 108.441 59.04C103.307 57.1333 98.2474 55.74 93.2608 54.86C88.2741 53.8333 83.8008 53.32 79.8408 53.32C66.0541 53.32 57.3274 58.6 53.6608 69.16C48.0874 68.1333 43.3208 65.9333 39.3608 62.56C35.4008 59.04 32.7608 54.86 31.4408 50.02C36.7208 39.3133 46.4741 33.96 60.7008 33.96C64.8074 33.96 69.2074 34.5467 73.9008 35.72C78.7408 36.7467 83.5074 38.14 88.2008 39.9C93.0408 41.5133 97.7341 43.3467 102.281 45.4C106.974 47.4533 111.301 49.5067 115.261 51.56C116.874 49.9467 118.414 48.3333 119.881 46.72C121.347 45.1067 122.887 43.4933 124.501 41.88C128.314 43.4933 131.834 46.06 135.061 49.58C138.434 53.1 140.707 56.7667 141.881 60.58C133.081 65.2733 124.574 72.7533 116.361 83.02C108.147 93.2867 100.741 105.02 94.1408 118.22C101.034 120.42 106.974 123.207 111.961 126.58C116.947 129.953 120.687 133.84 123.181 138.24L121.641 139.78C118.121 137.727 113.427 135.967 107.561 134.5C101.694 133.033 95.2408 131.787 88.2008 130.76C82.0408 144.547 77.2008 158.407 73.6808 172.34C70.1608 186.273 68.4008 198.887 68.4008 210.18C61.6541 209.007 55.5674 206.953 50.1408 204.02C44.7141 201.233 41.1208 198.227 39.3608 195C39.6541 186.787 41.7074 176.96 45.5208 165.52C49.3341 153.933 54.6141 141.613 61.3608 128.56C55.3474 128.56 49.9941 128.707 45.3008 129C40.7541 129.293 36.2074 129.733 31.6608 130.32C31.6608 130.027 31.5874 129.88 31.4408 129.88C31.4408 129.88 31.4408 129.733 31.4408 129.44C31.4408 128.413 31.7341 127.167 32.3208 125.7C32.9074 124.233 33.5674 122.84 34.3008 121.52C35.1808 120.053 36.1341 118.733 37.1608 117.56C38.1874 116.24 39.1408 115.36 40.0208 114.92Z" fill="white"/>
<path d="M0 0H31L0 22V0Z" fill="black"/>
<path d="M26.0008 18L23.0008 26L15.0008 29L23.0008 32L26.0008 40L29.0008 32L37.0008 29L29.0008 26L26.0008 18Z" fill="#FFA900"/>
<path d="M135.928 143.725L130.27 150.127L121.726 150.073L128.128 155.731L128.075 164.275L133.733 157.873L142.277 157.927L135.875 152.268L135.928 143.725Z" fill="#FFA900"/>
<path d="M122.896 12.3403L128.067 19.1418L126.342 27.51L133.144 22.339L141.512 24.0634L136.341 17.2619L138.065 8.89368L131.264 14.0646L122.896 12.3403Z" fill="#FFA900"/>
<path d="M11.6407 172.248L17.8895 180.467L15.8057 190.579L24.025 184.331L34.1374 186.414L27.8886 178.195L29.9724 168.083L21.7532 174.332L11.6407 172.248Z" fill="#FFA900"/>
</svg>
