<svg width="153" height="233" viewBox="0 0 153 233" fill="none" xmlns="http://www.w3.org/2000/svg">
<path d="M0 0H153V233H0V0Z" fill="#1A0449"/>
<path d="M0 0H31L0 22V0Z" fill="black"/>
<path d="M153 233H122L153 211V233Z" fill="black"/>
<path d="M30.3891 170.359C66.7773 161.262 98.6171 174.907 121.36 152.165C130.457 143.068 130.457 124.873 121.36 115.776C116.811 111.228 112.263 106.679 103.166 106.679C103.166 106.679 110.807 96.1267 135.005 93.0337L107.714 65.7425C103.166 88.4852 94.0685 97.5822 94.0685 97.5822C94.0685 88.4852 89.52 83.9366 84.9715 79.3881C75.8744 70.291 57.6803 70.291 48.5832 79.3881C25.8405 102.131 39.4861 133.971 30.3891 170.359Z" fill="black"/>
<path d="M121.481 152.46C121.481 160.673 119.721 168.153 116.201 174.9C112.827 181.647 108.354 187.513 102.781 192.5C97.3541 197.34 91.1941 201.08 84.3008 203.72C77.4074 206.507 70.5874 207.9 63.8408 207.9C57.3874 207.9 51.3008 207.24 45.5808 205.92C39.8608 204.6 34.8008 202.473 30.4008 199.54C26.1474 196.607 22.7741 192.72 20.2808 187.88C17.7874 182.893 16.5408 176.807 16.5408 169.62C16.5408 163.02 17.7141 157.007 20.0608 151.58C22.5541 146.153 25.9274 141.167 30.1808 136.62C34.5808 132.073 39.7141 127.967 45.5808 124.3C51.5941 120.487 58.1208 117.04 65.1608 113.96C60.0274 109.267 55.5541 104.207 51.7408 98.78C48.0741 93.2067 46.2408 86.7533 46.2408 79.42C46.2408 73.26 47.7808 67.6133 50.8608 62.48C54.0874 57.2 58.1208 52.6533 62.9608 48.84C67.9474 45.0267 73.5208 41.9467 79.6808 39.6C85.8408 37.1067 91.9274 35.4933 97.9408 34.76C108.941 38.28 117.887 42.8267 124.781 48.4C131.821 53.9733 135.341 60.28 135.341 67.32C135.341 71.1333 134.241 74.9467 132.041 78.76C129.841 82.4267 126.834 86.02 123.021 89.54C119.354 92.9133 115.101 96.14 110.261 99.22C105.567 102.153 100.727 104.793 95.7408 107.14C98.8208 110.22 101.901 113.373 104.981 116.6C108.061 119.68 110.774 123.053 113.121 126.72C115.614 130.387 117.594 134.347 119.061 138.6C120.674 142.707 121.481 147.327 121.481 152.46ZM39.6408 174.24C39.6408 178.347 40.2274 181.94 41.4008 185.02C42.5741 187.953 44.1141 190.447 46.0208 192.5C48.0741 194.407 50.3474 195.873 52.8408 196.9C55.4808 197.78 58.1208 198.22 60.7608 198.22C64.4274 198.22 68.1674 197.34 71.9808 195.58C75.7941 193.673 79.2408 190.96 82.3208 187.44C85.4008 183.92 87.8941 179.593 89.8008 174.46C91.7074 169.327 92.6608 163.46 92.6608 156.86C92.6608 149.82 90.9741 143.733 87.6008 138.6C84.2274 133.32 80.1941 128.407 75.5008 123.86C68.9008 127.673 63.2541 131.707 58.5608 135.96C54.0141 140.213 50.3474 144.54 47.5608 148.94C44.7741 153.193 42.7208 157.52 41.4008 161.92C40.2274 166.173 39.6408 170.28 39.6408 174.24ZM115.541 62.26C115.541 57.5667 114.367 53.8267 112.021 51.04C109.821 48.2533 107.034 46.5667 103.661 45.98C100.581 46.5667 97.3541 47.74 93.9808 49.5C90.6074 51.1133 87.4541 53.1667 84.5208 55.66C81.7341 58.1533 79.3874 60.94 77.4808 64.02C75.7208 66.9533 74.8408 69.96 74.8408 73.04C74.8408 78.1733 76.0141 82.7933 78.3608 86.9C80.7074 91.0067 83.6408 94.9667 87.1608 98.78C89.9474 97.02 92.9541 94.6733 96.1808 91.74C99.5541 88.8067 102.634 85.6533 105.421 82.28C108.354 78.9067 110.774 75.5333 112.681 72.16C114.587 68.64 115.541 65.34 115.541 62.26Z" fill="white"/>
<path d="M0 0H31L0 22V0Z" fill="black"/>
<path d="M26.0008 18L23.0008 26L15.0008 29L23.0008 32L26.0008 40L29.0008 32L37.0008 29L29.0008 26L26.0008 18Z" fill="#FFA900"/>
<path d="M135.928 143.725L130.27 150.127L121.726 150.073L128.128 155.731L128.075 164.275L133.733 157.873L142.277 157.927L135.875 152.268L135.928 143.725Z" fill="#FFA900"/>
<path d="M122.896 12.3403L128.067 19.1418L126.342 27.51L133.144 22.339L141.512 24.0634L136.341 17.2619L138.065 8.89368L131.264 14.0646L122.896 12.3403Z" fill="#FFA900"/>
<path d="M11.6407 172.248L17.8895 180.467L15.8057 190.579L24.025 184.331L34.1374 186.414L27.8886 178.195L29.9724 168.083L21.7532 174.332L11.6407 172.248Z" fill="#FFA900"/>
</svg>
