<svg width="153" height="233" viewBox="0 0 153 233" fill="none" xmlns="http://www.w3.org/2000/svg">
<path d="M0 0H153V233H0V0Z" fill="#1A0449"/>
<path d="M0 0H31L0 22V0Z" fill="black"/>
<path d="M153 233H122L153 211V233Z" fill="black"/>
<path d="M30.3891 170.359C66.7773 161.262 98.6171 174.907 121.36 152.165C130.457 143.068 130.457 124.873 121.36 115.776C116.811 111.228 112.263 106.679 103.166 106.679C103.166 106.679 110.807 96.1267 135.005 93.0337L107.714 65.7425C103.166 88.4852 94.0685 97.5822 94.0685 97.5822C94.0685 88.4852 89.52 83.9366 84.9715 79.3881C75.8744 70.291 57.6803 70.291 48.5832 79.3881C25.8405 102.131 39.4861 133.971 30.3891 170.359Z" fill="black"/>
<path d="M41.8208 208.2C39.7674 207.613 37.3474 206.66 34.5608 205.34C31.7741 204.02 29.0608 202.553 26.4208 200.94C23.7808 199.327 21.3608 197.567 19.1608 195.66C17.1074 193.9 15.8608 192.287 15.4208 190.82C20.5541 190.233 26.7874 187.667 34.1208 183.12C41.6008 178.573 49.3008 172.853 57.2208 165.96C65.1408 158.92 72.8408 151 80.3208 142.2C87.8008 133.253 94.1074 124.087 99.2408 114.7C96.0141 118.073 92.4208 121.447 88.4608 124.82C84.6474 128.193 80.6874 131.273 76.5808 134.06C72.6208 136.847 68.6608 139.12 64.7008 140.88C60.7408 142.64 57.0741 143.593 53.7008 143.74C50.6208 142.127 47.6141 139.927 44.6808 137.14C41.7474 134.353 39.1074 131.347 36.7608 128.12C34.4141 124.747 32.5074 121.3 31.0408 117.78C29.5741 114.113 28.8408 110.593 28.8408 107.22C28.8408 102.82 30.0874 97.98 32.5808 92.7C35.0741 87.42 38.3008 82.14 42.2608 76.86C46.3674 71.4333 50.9874 66.2267 56.1208 61.24C61.2541 56.2533 66.5341 51.8533 71.9608 48.04C77.3875 44.08 82.6674 40.9267 87.8008 38.58C92.9341 36.2333 97.5541 35.06 101.661 35.06C113.101 37.4067 122.267 41.9533 129.161 48.7C136.054 55.3 139.501 63.7333 139.501 74C139.501 79.8667 138.034 86.98 135.101 95.34C132.314 103.553 128.427 112.28 123.441 121.52C118.601 130.613 112.881 139.853 106.281 149.24C99.8274 158.48 93.0074 167.133 85.8208 175.2C78.6341 183.12 71.2274 190.013 63.6008 195.88C56.1208 201.747 48.8608 205.853 41.8208 208.2ZM55.2408 131.2C62.4274 129.733 69.6874 126.653 77.0208 121.96C84.5008 117.12 91.1741 111.547 97.0408 105.24C102.907 98.9333 107.674 92.26 111.341 85.22C115.154 78.18 117.061 71.58 117.061 65.42C117.061 63.3667 116.474 61.24 115.301 59.04C114.274 56.6933 112.881 54.4933 111.121 52.44C109.361 50.3867 107.307 48.6267 104.961 47.16C102.761 45.5467 100.487 44.3733 98.1408 43.64C94.6208 45.5467 90.9541 48.1133 87.1408 51.34C83.3274 54.42 79.5874 57.94 75.9208 61.9C72.4008 65.86 69.0274 70.1133 65.8008 74.66C62.7208 79.2067 59.9341 83.7533 57.4408 88.3C55.0941 92.8467 53.1874 97.32 51.7208 101.72C50.4008 106.12 49.7408 110.153 49.7408 113.82C49.7408 117.193 50.1074 120.42 50.8408 123.5C51.7208 126.58 53.1874 129.147 55.2408 131.2Z" fill="white"/>
<path d="M0 0H31L0 22V0Z" fill="black"/>
<path d="M26.0008 18L23.0008 26L15.0008 29L23.0008 32L26.0008 40L29.0008 32L37.0008 29L29.0008 26L26.0008 18Z" fill="#FFA900"/>
<path d="M135.928 143.725L130.27 150.127L121.726 150.073L128.128 155.731L128.075 164.275L133.733 157.873L142.277 157.927L135.875 152.268L135.928 143.725Z" fill="#FFA900"/>
<path d="M122.896 12.3403L128.067 19.1418L126.342 27.51L133.144 22.339L141.512 24.0634L136.341 17.2619L138.065 8.89368L131.264 14.0646L122.896 12.3403Z" fill="#FFA900"/>
<path d="M11.6407 172.248L17.8895 180.467L15.8057 190.579L24.025 184.331L34.1374 186.414L27.8886 178.195L29.9724 168.083L21.7532 174.332L11.6407 172.248Z" fill="#FFA900"/>
</svg>
