<svg width="1920" height="870" viewBox="0 0 1920 870" fill="none" xmlns="http://www.w3.org/2000/svg">
<rect width="1920" height="870" fill="#038661"/>
<path d="M165 74.4446H1755C1804.71 74.4446 1845 114.739 1845 164.445V705.556C1845 755.261 1804.71 795.556 1755 795.556H165C115.294 795.556 75 755.261 75 705.556V164.445C75 114.739 115.294 74.4446 165 74.4446Z" stroke="#90BF3E" stroke-width="20"/>
<path d="M721 259.5L721 610.5C721 660.206 680.706 700.5 631 700.5L326 700.5C276.294 700.5 236 660.206 236 610.5L236 259.5C236 209.794 276.294 169.5 326 169.5L631 169.5C680.706 169.5 721 209.794 721 259.5Z" stroke="#90BF3E" stroke-width="20"/>
<path d="M1688 259.5L1688 610.5C1688 660.206 1647.71 700.5 1598 700.5L1293 700.5C1243.29 700.5 1203 660.206 1203 610.5L1203 259.5C1203 209.794 1243.29 169.5 1293 169.5L1598 169.5C1647.71 169.5 1688 209.794 1688 259.5Z" stroke="#90BF3E" stroke-width="20"/>
</svg>
